# AST/ASF file generated using VICON BodyLanguage
# -----------------------------------------------
:version 1.10
:name VICON
:units
  mass 1.0
  length 0.45
  angle deg
:documentation
   .ast/.asf automatically generated from VICON data using
   VICON BodyBuilder and BodyLanguage model FoxedUp or BRILLIANT.MOD
:root
   order TX TY TZ RX RY RZ
   axis XYZ
   position 0 0 0  
   orientation 0 0 0 
:bonedata
  begin
     id 1 
     name lhipjoint
     direction 0.610259 -0.730986 0.305356 
     length 2.50941 
     axis 0 0 0  XYZ
  end
  begin
     id 2 
     name lfemur
     direction 0.34202 -0.939693 0  
     length 7.48822  
     axis 0 0 20  XYZ
    dof rx ry rz
    limits (-160.0 20.0)
           (-70.0 70.0)
           (-60.0 70.0)
  end
  begin
     id 3 
     name ltibia
     direction 0.34202 -0.939693 0   
     length 7.60141   
     axis 0 0 20   XYZ
    dof rx
    limits (-10.0 170.0)
  end
  begin
     id 4 
     name lfoot
     direction 0.0673488 -0.185039 0.980421   
     length 2.04049   
     axis -90 7.62852e-016 20   XYZ
    dof rx rz
    limits (-45.0 90.0)
           (-70.0 20.0)
  end
  begin
     id 5 
     name ltoes
     direction 1.5356e-011 -4.21729e-011 1   
     length 1.02897   
     axis -90 7.62852e-016 20   XYZ
    dof rx
    limits (-90.0 20.0)
  end
  begin
     id 6 
     name rhipjoint
     direction -0.57612 -0.754205 0.315056   
     length 2.43216  
     axis 0 0 0  XYZ 
  end
  begin
     id 7 
     name rfemur
     direction -0.34202 -0.939693 0   
     length 7.42799   
     axis 0 0 -20   XYZ
    dof rx ry rz
    limits (-160.0 20.0)
           (-70.0 70.0)
           (-70.0 60.0)
  end
  begin
     id 8 
     name rtibia
     direction -0.34202 -0.939693 0   
     length 7.69484   
     axis 0 0 -20   XYZ
    dof rx
    limits (-10.0 170.0)
 end
 begin
     id 9 
     name rfoot
     direction -0.111837 -0.30727 0.945028   
     length 2.15769  
     axis -90 -7.62852e-016 -20   XYZ
    dof rx rz
    limits (-45.0 90.0)
           (-20.0 70.0)
  end
  begin
     id 10 
     name rtoes
     direction -1.53539e-011 -4.21878e-011 1   
     length 1.07391   
     axis -90 -7.62852e-016 -20   XYZ
    dof rx
    limits (-90.0 20.0)
  end
  begin
     id 11 
     name lowerback
     direction 0.00552624 0.990109 -0.140195   
     length 2.12403   
     axis 0 0 0   XYZ
    dof rx ry rz
    limits (-20.0 45.0)
           (-30.0 30.0)
           (-30.0 30.0)
  end
  begin
     id 12 
     name upperback
     direction 0.00361898 0.999976 -0.00584723   
     length 2.13232   
     axis 0 0 0   XYZ
    dof rx ry rz
    limits (-20.0 45.0)
           (-30.0 30.0)
           (-30.0 30.0)
  end
  begin
     id 13 
     name thorax
     direction -0.000331275 0.998253 0.0590847   
     length 2.17688   
     axis 0 0 0   XYZ
    dof rx ry rz
    limits (-20.0 45.0)
           (-30.0 30.0)
           (-30.0 30.0)
  end
  begin
     id 14 
     name lowerneck
     direction -0.0561561 0.979832 0.19177   
     length 1.64159   
     axis 0 0 0   XYZ
    dof rx ry rz
    limits (-20.0 45.0)
           (-30.0 30.0)
           (-30.0 30.0)
  end
  begin
     id 15 
     name upperneck
     direction 0.0827153 0.979385 -0.184293   
     length 1.68939   
     axis 0 0 0   XYZ
    dof rx ry rz
    limits (-20.0 45.0)
           (-30.0 30.0)
           (-30.0 30.0)
  end
  begin
     id 16
     name head
     direction 0.0278583 0.995936 -0.0856488  
     length 1.70207  
     axis 0 0 0   XYZ
    dof rx ry rz
    limits (-20.0 45.0)
           (-30.0 30.0)
           (-30.0 30.0)
  end
  begin
     id 17 
     name lclavicle
     direction 0.950993 0.301131 -0.0702275  
     length 3.41652  
     axis 0 0 0   XYZ
    dof ry rz
    limits (-20.0 10.0)
           (0.0 20.0)
  end
  begin
     id 18 
     name lhumerus
     direction 1 -4.48981e-011 -3.9662e-029   
     length 5.32955   
     axis 180 -30 -90   XYZ
    dof rx ry rz
    limits (-60.0 90.0)
           (-90.0 90.0)
           (-90.0 90.0)
  end
  begin
     id 19
     name lradius
     direction 1 -4.48925e-011 -9.0549e-027   
     length 3.69232   
     axis 180 -30 -90   XYZ
    dof rx
    limits (-10.0 170.0)
  end
  begin
     id 20
     name lwrist
     direction 1 -4.49007e-011 -1.49005e-026   
     length 1.84616   
     axis 9.0955e-015 90 90   XYZ
    dof ry
    limits (-180.0 0.0)
 end
  begin
     id 21 
     name lhand
     direction 1 -4.49016e-011 -2.98023e-026   
     length 0.536598   
     axis 1.90115e-014 90 90   XYZ
    dof rx rz
    limits (-90.0 90.0)
           (-45.0 45.0)
  end
  begin
     id 22 
     name lfingers
     direction 1 -4.48924e-011 -5.9578e-026   
     length 0.432619   
     axis 3.80223e-014 90 90   XYZ
    dof rx
    limits (0.0 90.0)
  end
  begin
     id 23
     name lthumb
     direction 0.707107 -6.34947e-011 0.707107   
     length 0.621157   
     axis -90 45 -3.84942e-014   XYZ
    dof rx rz
    limits (-45.0 45.0)
           (-45.0 45.0)
  end
  begin
     id 24 
     name rclavicle
     direction -0.955495 0.276497 -0.102848   
     length 3.36357  
     axis 0 0 0   XYZ 
    dof ry rz
    limits (-10.0 20.0)
           (-20.0 0.0)
  end
  begin
     id 25 
     name rhumerus
     direction -1 -4.48961e-011 3.30983e-027  
     length 5.23431   
     axis 180 30 90   XYZ
    dof rx ry rz
    limits (-90.0 60.0)
           (-90.0 90.0)
           (-90.0 90.0)
  end
  begin
     id 26 
     name rradius
     direction -1 -4.48965e-011 -6.63263e-027   
     length 3.55301   
     axis 180 30 90   XYZ
    dof rx
    limits (-10.0 170.0)
  end
  begin
     id 27 
     name rwrist
     direction -1 -4.48942e-011 -1.48958e-026   
     length 1.77651   
     axis 9.0955e-015 -90 -90   XYZ
    dof ry
    limits (-180.0 0.0)
  end
  begin
     id 28
     name rhand
     direction -1 -4.48977e-011 -2.97966e-026   
     length 0.772522   
     axis 1.90115e-014 -90 -90   XYZ
    dof rx rz
    limits (-90.0 90.0)
           (-45.0 45.0)
  end
  begin
     id 29
     name rfingers
     direction -1 -4.49135e-011 -5.96389e-026   
     length 0.622827   
     axis 3.80223e-014 -90 -90   XYZ
    dof rx
    limits (0.0 90.0)
  end
  begin
     id 30
     name rthumb
     direction -0.707107 -6.34969e-011 0.707107   
     length 0.894259   
     axis -90 -45 3.84942e-014   XYZ
    dof rx rz
    limits (-45.0 45.0)
           (-45.0 45.0)
  end
:hierarchy
  begin
    root lhipjoint rhipjoint lowerback
    lhipjoint lfemur
    lfemur ltibia
    ltibia lfoot
    lfoot ltoes
    rhipjoint rfemur
    rfemur rtibia
    rtibia rfoot
    rfoot rtoes
    lowerback upperback
    upperback thorax
    thorax lowerneck lclavicle rclavicle
    lowerneck upperneck
    upperneck head
    lclavicle lhumerus
    lhumerus lradius
    lradius lwrist
    lwrist lhand lthumb
    lhand lfingers
    rclavicle rhumerus
    rhumerus rradius
    rradius rwrist
    rwrist rhand rthumb
    rhand rfingers
  end

#!OML:ASF F:\VICON\USERDATA\INSTALL\rory3\rory3.ASF
:FULLY-SPECIFIED
:DEGREES
154
root -0.71132 18.0365 -11.9574 380.153 -81.3064 -381.457
lowerback 11.8074 2.00687 2.04127
upperback 0.826697 2.94722 0.888787
thorax -5.69562 1.38913 -0.700518
lowerneck -23.4198 -3.41591 -10.0639
upperneck 32.0727 -3.1114 4.85343
head 15.4727 -2.01742 3.12467
rclavicle -1.68035e-015 4.19933e-015
rhumerus -33.233 -9.96329 -81.0377
rradius 27.9689
rwrist 6.89503
rhand -15.0286 8.34482
rfingers 7.12502
rthumb 11.1372 -21.3396
lclavicle -1.68035e-015 4.19933e-015
lhumerus -34.6792 5.16341 83.6772
lradius 32.0142
lwrist -5.57577
lhand -18.7572 24.876
lfingers 7.12502
lthumb 7.53954 54.7217
rfemur -6.10781 -4.65214 25.1889
rtibia 21.7785
rfoot -11.762 1.05209
rtoes 2.79842
lfemur -13.93 -2.87064 -19.1667
ltibia 56.5147
lfoot -0.650113 -4.6573
ltoes -15.9628
155
root -0.809012 18.0258 -11.9541 378.771 -80.9579 -380.04
lowerback 11.7745 2.04885 1.9703
upperback 0.956943 2.98386 0.824671
thorax -5.53906 1.41021 -0.729237
lowerneck -23.5542 -3.48768 -10.1041
upperneck 32.0938 -3.22746 4.98055
head 15.5284 -2.04935 3.16421
rclavicle -5.23673e-015 0
rhumerus -32.7289 -9.75812 -81.1798
rradius 28.0944
rwrist 6.77206
rhand -15.0776 8.18623
rfingers 7.12502
rthumb 11.0899 -21.5008
lclavicle -5.23673e-015 0
lhumerus -34.8302 5.84459 83.302
lradius 32.103
lwrist -5.96439
lhand -17.8263 24.6934
lfingers 7.12502
lthumb 8.43793 54.5048
rfemur -6.00445 -4.60557 25.1526
rtibia 22.2541
rfoot -12.173 0.454442
rtoes 1.28882
lfemur -14.9706 -2.65403 -19.2462
ltibia 56.3267
lfoot -1.58799 -3.51192
ltoes -15.355
156
root -0.908644 18.0224 -11.9461 376.281 -80.6471 -377.347
lowerback 11.5853 2.09272 1.63973
upperback 1.03639 2.98711 0.714791
thorax -5.36072 1.42151 -0.649645
lowerneck -23.6653 -3.51297 -10.0358
upperneck 32.1357 -3.2816 4.98972
head 15.5773 -2.06027 3.14702
rclavicle -4.68014e-014 -3.32964e-015
rhumerus -32.2517 -9.40412 -81.3433
rradius 28.2598
rwrist 6.49274
rhand -15.3818 7.96592
rfingers 7.12502
rthumb 10.7965 -21.7366
lclavicle -4.68014e-014 -3.32964e-015
lhumerus -34.9936 6.17313 83.0942
lradius 32.2369
lwrist -5.8239
lhand -17.3785 24.6661
lfingers 7.12502
lthumb 8.87009 54.4597
rfemur -6.04339 -4.23721 24.8673
rtibia 22.7699
rfoot -12.6195 -0.274996
rtoes 1.39677
lfemur -16.1207 -2.65665 -19.664
ltibia 55.9627
lfoot -2.4324 -2.58262
ltoes -16.0568
157
root -1.01132 18.0174 -11.9308 374.934 -80.3014 -375.893
lowerback 11.538 2.11698 1.60528
upperback 1.05102 3.00877 0.619491
thorax -5.31505 1.43292 -0.730916
lowerneck -23.6451 -3.49839 -10.0091
upperneck 32.2132 -3.30822 5.07133
head 15.6128 -2.05866 3.17469
rclavicle -2.10028e-014 1.98785e-016
rhumerus -31.9606 -9.07556 -81.4744
rradius 28.4828
rwrist 6.23492
rhand -15.541 7.85784
rfingers 7.12502
rthumb 10.6429 -21.8526
lclavicle -2.10028e-014 1.98785e-016
lhumerus -35.2005 6.1265 82.9651
lradius 32.2147
lwrist -5.4477
lhand -17.0204 24.6581
lfingers 7.12502
lthumb 9.21563 54.4367
rfemur -5.98415 -4.11063 24.7354
rtibia 23.3077
rfoot -13.1547 -0.72509
rtoes 2.28959
lfemur -17.0792 -2.75189 -19.8363
ltibia 55.4191
lfoot -3.26088 -1.89983
ltoes -17.4767
158
root -1.11132 18 -11.918 374.767 -79.8187 -375.785
lowerback 11.711 2.08266 1.77672
upperback 1.04109 2.99099 0.663746
thorax -5.41586 1.41885 -0.785413
lowerneck -23.4513 -3.5084 -10.1993
upperneck 32.1509 -3.30109 5.17342
head 15.5459 -2.06506 3.25152
rclavicle 5.83992e-014 4.22417e-015
rhumerus -31.7674 -8.83927 -81.411
rradius 28.6917
rwrist 6.35928
rhand -15.3575 7.96618
rfingers 7.12502
rthumb 10.8199 -21.7351
lclavicle 5.83992e-014 4.22417e-015
lhumerus -35.5678 6.24191 82.9115
lradius 32.2236
lwrist -5.32838
lhand -16.7433 24.7869
lfingers 7.12502
lthumb 9.483 54.5535
rfemur -5.75358 -4.18061 24.849
rtibia 23.8103
rfoot -13.7106 -1.00235
rtoes 4.10752
lfemur -17.8746 -2.72185 -19.6902
ltibia 54.7279
lfoot -4.01541 -1.51462
ltoes -20.062
159
root -1.21511 17.9994 -11.9109 375.031 -79.49 -376.088
lowerback 11.8842 2.13482 1.85778
upperback 0.98407 3.07881 0.705818
thorax -5.56859 1.45809 -0.809672
lowerneck -23.1712 -3.53666 -10.2339
upperneck 32.0456 -3.34379 5.1327
head 15.4377 -2.09329 3.22841
rclavicle 2.1065e-014 -6.60959e-015
rhumerus -31.7331 -8.52929 -81.4359
rradius 28.9967
rwrist 6.2561
rhand -15.1412 8.04199
rfingers 7.12502
rthumb 11.0286 -21.6483
lclavicle 2.1065e-014 -6.60959e-015
lhumerus -36.027 6.20245 82.8199
lradius 32.2949
lwrist -5.31893
lhand -16.6473 24.9268
lfingers 7.12502
lthumb 9.5757 54.6892
rfemur -5.43425 -3.48258 25.0167
rtibia 24.1688
rfoot -13.9446 -1.49061
rtoes 7.87594
lfemur -18.6378 -2.49833 -19.499
ltibia 53.9434
lfoot -4.57132 -1.15888
ltoes -21.9866
160
root -1.31627 17.9995 -11.8995 375.666 -79.413 -376.721
lowerback 12.039 2.27544 1.95122
upperback 0.947831 3.28032 0.669281
thorax -5.68077 1.55239 -0.94078
lowerneck -23.0537 -3.51268 -9.9391
upperneck 31.9974 -3.38524 4.98047
head 15.3812 -2.09503 3.10288
rclavicle 1.93007e-014 -1.33186e-014
rhumerus -31.6685 -8.05461 -81.6843
rradius 29.3892
rwrist 5.83629
rhand -15.2107 8.00844
rfingers 7.12502
rthumb 10.9615 -21.6854
lclavicle 1.93007e-014 -1.33186e-014
lhumerus -36.3379 5.84164 82.6715
lradius 32.3641
lwrist -5.11071
lhand -16.5304 24.927
lfingers 7.12502
lthumb 9.68842 54.6841
rfemur -5.12277 -2.89169 25.2027
rtibia 24.3667
rfoot -14.1002 -1.96874
rtoes 9.50924
lfemur -19.3533 -2.58792 -19.4032
ltibia 53.0713
lfoot -4.97047 -0.229828
ltoes -21.4528
